# xmcd
#
# Track frame offsets:
#	150
#	16298
#	33316
#	52125
#	65227
#	84851
#	97030
#	116918
#	133777
#	152172
#	168616
#	182100
#	198534
#	211622
#	231101
#
# Disc length: 3389 seconds
#
# Revision: 0
# Processed by: cddbd v1.4PL0 Copyright (c) Steve Scherf et al.
# Submitted via: EasyCDDAExtractor 4.6.9.1
#
DISCID=d60d3b0f
DTITLE=Brooks and Dunn - Red Dirt Road
DYEAR=2003
DGENRE=Country
TTITLE0=You Can't Take The Honky Tonk Out of The Girl
TTITLE1=Caroline
TTITLE2=When We Were Kings
TTITLE3=That's What She Gets for Loving Me
TTITLE4=Red Dirt Road
TTITLE5=Feels Good Don't It
TTITLE6=I Used to Know This Song by Heart
TTITLE7=Believer
TTITLE8=Memory Town
TTITLE9=She Was Born To Run
TTITLE10=Till My Dyin' Day
TTITLE11=My Baby's Everything I Love
TTITLE12=Good Day To Be Me
TTITLE13=Good Cowboy
TTITLE14=Holy War
EXTD=YEAR: 2003
EXTT0=
EXTT1=
EXTT2=
EXTT3=
EXTT4=
EXTT5=
EXTT6=
EXTT7=
EXTT8=
EXTT9=
EXTT10=
EXTT11=
EXTT12=
EXTT13=
EXTT14=
PLAYORDER=
